<svg width="205" height="39" viewBox="0 0 205 39" fill="none" xmlns="http://www.w3.org/2000/svg">
<g clip-path="url(#clip0)">
<path d="M25.2559 9.02651C24.7094 10.7594 22.1067 18.6479 21.7944 19.579C21.6122 20.148 21.5081 20.2514 21.3259 20.2514C21.1697 20.2514 21.0656 20.148 20.8314 19.6307C20.493 18.8289 16.8753 10.2162 15.2877 6.36252C13.7261 10.2162 10.1864 18.8031 9.8741 19.6307C9.66589 20.148 9.53575 20.2514 9.37959 20.2514C9.19741 20.2514 9.0933 20.148 8.91111 19.579C8.59879 18.6479 5.94406 10.7335 5.37147 9.02651C3.05509 2.19843 2.8729 1.75875 2.4825 1.37079C2.1962 1.08628 1.83183 0.982829 1.1291 0.982829C0.738703 0.982829 0.738703 0.491414 1.1291 0.491414C2.11812 0.491414 6.46459 0.491414 7.6358 0.491414C8.0262 0.491414 8.0262 0.982829 7.6358 0.982829C6.62075 0.982829 6.38651 1.34492 6.64678 2.30189C6.855 3.10367 8.91111 10.0869 9.74397 12.8026C11.5398 8.87132 14.2987 3.00021 15.1575 1.06042C15.3397 0.646598 15.6 0.646598 15.8082 1.08628C16.6411 2.97435 20.2848 10.9663 21.0916 12.9061C22.0807 9.6731 23.6683 4.21582 24.1368 2.45707C24.319 1.83634 24.2929 1.47424 24.1368 1.26733C23.9806 1.06042 23.6683 0.982829 23.1998 0.982829C22.8094 0.982829 22.8094 0.491414 23.1998 0.491414C24.345 0.491414 28.5613 0.491414 29.5503 0.491414C29.9407 0.491414 29.9407 0.982829 29.5503 0.982829C28.8476 0.982829 28.5093 1.08628 28.223 1.37079C27.7545 1.75875 27.5203 1.70702 25.2559 9.02651ZM33.4451 0.46555C33.0547 0.46555 33.0547 0.956965 33.4451 0.956965C34.2519 0.956965 34.6423 1.06042 34.9286 1.34492C35.2669 1.68115 35.319 1.96566 35.319 3.51749V16.7339C35.319 18.2858 35.2669 18.5703 34.9286 18.9065C34.6423 19.191 34.2519 19.2945 33.4451 19.2945C33.0547 19.2945 33.0547 19.7859 33.4451 19.7859H46.953C47.2393 19.7859 47.3954 19.6824 47.3954 19.2428C47.3954 18.0271 47.4735 16.9926 47.4735 16.4753C47.4735 16.1391 47.0831 16.1391 47.005 16.3719C46.953 16.5012 46.9009 16.8891 46.6667 17.1219C46.1982 17.6133 45.4174 17.8461 43.5174 17.8461H38.5203V10.6818H42.3202C43.4654 10.6818 43.9599 10.837 44.1941 11.0956C44.4023 11.3284 44.3763 11.587 44.4284 11.7164C44.5065 11.975 44.8969 11.9233 44.8969 11.6129C44.8969 11.0956 44.8969 8.4575 44.8969 7.96609C44.8969 7.65572 44.5585 7.60399 44.4544 7.78504C44.4023 7.88849 44.4023 7.99195 44.3763 8.0954C44.3503 8.22472 44.2982 8.32818 44.1941 8.40577C43.9599 8.63855 43.4654 8.76787 42.3462 8.76787H38.5463V2.37948H42.6065C44.5065 2.37948 45.2873 2.61226 45.7557 3.10367C45.964 3.33644 46.042 3.64681 46.0941 3.77613C46.1982 4.03477 46.5626 3.98304 46.5626 3.67268C46.5626 3.1554 46.4845 2.2243 46.4845 0.982829C46.4845 0.59487 46.3544 0.491414 45.9379 0.491414H33.4451V0.46555ZM185.23 0.46555C184.839 0.46555 184.839 0.956965 185.23 0.956965C186.088 0.956965 186.661 1.11215 186.895 1.34492C187.234 1.68115 187.286 1.96566 187.286 3.51749V16.7598C187.286 18.3117 187.234 18.5962 186.895 18.9324C186.609 19.2169 186.219 19.3203 185.412 19.3203C185.021 19.3203 185.021 19.8118 185.412 19.8118C186.401 19.8118 191.242 19.8118 191.971 19.8118C196.395 19.8118 198.737 19.0358 200.846 17.1995C203.448 14.9235 204.073 12.0267 204.073 9.46619C204.073 7.26776 203.136 4.81069 201.522 3.20713C199.674 1.39665 197.046 0.46555 193.22 0.46555H185.23ZM190.435 17.8461V2.53466C190.982 2.43121 191.971 2.32775 193.064 2.32775C195.718 2.32775 197.332 3.00021 198.555 4.18995C200.091 5.69006 200.689 7.73331 200.689 10.0869C200.689 11.6646 200.325 13.6561 199.128 15.2597C197.931 16.8374 196.005 17.9754 192.725 17.9754C191.06 17.9754 190.773 17.9496 190.435 17.8461ZM153.079 9.93174C153.079 4.13823 148.342 0.0258639 142.59 0.0258639C136.11 0 131.711 4.86242 131.711 10.0611C131.711 15.8804 136.474 20.2773 142.33 20.2773C147.978 20.2773 153.079 16.2943 153.079 9.93174ZM142.538 18.4668C137.723 18.4668 135.173 13.9665 135.173 9.7507C135.173 5.06933 138.296 1.91393 142.356 1.91393C146.13 1.91393 149.67 5.19865 149.67 10.6042C149.644 14.9752 146.885 18.4668 142.538 18.4668ZM180.32 9.93174C180.32 4.13823 175.583 0.0258639 169.831 0.0258639C163.376 0.0258639 158.978 4.86242 158.978 10.0869C158.978 15.9063 163.741 20.3032 169.597 20.3032C175.193 20.2773 180.32 16.2943 180.32 9.93174ZM169.779 18.4668C164.964 18.4668 162.413 13.9665 162.413 9.7507C162.413 5.06933 165.537 1.91393 169.597 1.91393C173.345 1.88807 176.884 5.17278 176.884 10.5783C176.884 14.9752 174.099 18.4668 169.779 18.4668ZM122.143 0.46555C121.752 0.46555 121.752 0.956965 122.143 0.956965C122.637 0.956965 122.923 1.03456 123.079 1.24147C123.236 1.44838 123.262 1.81047 123.079 2.43121C122.611 4.18995 121.023 9.64724 120.034 12.8802C119.201 10.9404 115.584 2.94849 114.751 1.06042C114.569 0.646598 114.282 0.620734 114.1 1.03456C113.267 2.97435 110.483 8.84546 108.687 12.7768C107.854 10.0611 105.824 3.07781 105.589 2.27602C105.329 1.31906 105.563 0.956965 106.578 0.956965C106.969 0.956965 106.969 0.46555 106.578 0.46555H100.098C99.7074 0.46555 99.7074 0.956965 100.098 0.956965C100.801 0.956965 101.139 1.06042 101.425 1.34492C101.842 1.75875 101.998 2.17257 104.314 9.00064C104.913 10.7335 107.568 18.622 107.854 19.5531C108.036 20.1221 108.14 20.2256 108.322 20.2256C108.478 20.2256 108.583 20.1221 108.817 19.6048C109.155 18.8031 112.669 10.1904 114.23 6.33666C115.792 10.1904 119.436 18.7772 119.774 19.6048C119.982 20.1221 120.112 20.2256 120.269 20.2256C120.451 20.2256 120.555 20.1221 120.737 19.5531C121.049 18.622 123.652 10.7335 124.199 9.00064C126.463 1.68115 126.697 1.75875 127.114 1.34492C127.4 1.06042 127.738 0.956965 128.441 0.956965C128.831 0.956965 128.831 0.46555 128.441 0.46555H122.143ZM92.7415 13.0354C92.7415 11.4836 92.6895 11.1991 92.3511 10.8628C92.0648 10.5783 91.6744 10.4749 90.8676 10.4749C90.4772 10.4749 90.4772 9.98347 90.8676 9.98347H95.3963C95.7346 9.98347 95.8387 10.0869 95.8387 10.449C95.8387 12.5699 95.8387 19.1393 95.8387 19.2428C95.8387 19.4497 95.8127 19.4755 95.4743 19.5531C92.3251 20.148 91.2059 20.329 89.4622 20.329C85.2198 20.329 82.2267 19.01 80.1446 16.9409C78.7391 15.5442 77.5939 13.113 77.5939 10.1904C77.5939 7.47467 78.635 5.09519 80.2747 3.4399C82.6692 0.956965 86.0787 0 89.358 0C90.7114 0 93.0018 0.206911 94.147 0.46555C94.4853 0.543142 94.5374 0.646598 94.5374 0.982829C94.5374 1.2156 94.5374 3.82786 94.5374 4.31927C94.5374 4.44859 94.5114 4.52619 94.4853 4.57791C94.3552 4.68137 94.0949 4.70723 94.0429 4.42273C93.9648 3.95718 93.7305 3.51749 93.3141 3.12953C92.5333 2.43121 91.2059 1.93979 89.2539 1.93979C86.8074 1.93979 84.7513 2.68985 83.3719 4.0865C81.9144 5.53488 81.1596 7.65572 81.1596 9.80242C81.1596 12.2854 81.8623 14.3803 83.6842 16.2167C84.9335 17.4581 86.6513 18.3634 89.1238 18.3634C90.6594 18.3634 91.9867 18.053 92.7675 17.7168V13.0354H92.7415ZM60.868 0.46555C64.6939 0.46555 67.3226 1.39665 69.1705 3.23299C70.7842 4.83655 71.7212 7.29362 71.7212 9.49206C71.7212 12.0526 71.0965 14.9493 68.4939 17.2254C66.3857 19.0617 64.0433 19.8376 59.6187 19.8376H53.06C52.6696 19.8376 52.6696 19.3462 53.06 19.3462C53.8668 19.3462 54.2572 19.2428 54.5435 18.9583C54.8819 18.622 54.9339 18.3375 54.9339 16.7857V3.54336C54.9339 1.99152 54.8819 1.70702 54.5435 1.37079C54.2572 1.08628 53.8668 0.982829 53.06 0.982829C52.6696 0.982829 52.6696 0.491414 53.06 0.491414L60.868 0.46555ZM60.3995 17.9754C63.6789 17.9754 65.6049 16.8374 66.8021 15.2597C67.9994 13.682 68.3637 11.6646 68.3637 10.0869C68.3637 7.70745 67.7391 5.69006 66.2295 4.18995C65.0063 2.97435 63.3926 2.32775 60.7379 2.32775C59.6708 2.32775 58.6818 2.43121 58.1092 2.53466V17.8461C58.4475 17.9496 58.7078 17.9754 60.3995 17.9754Z" fill="#79ABD2"/>
<path d="M57.7885 32.0713H61.4322V32.8731H58.6994V34.8129H61.3281V35.6405H58.6994V37.632H61.5103V38.4338H57.7625V32.0713H57.7885Z" fill="#79ABD2"/>
<path d="M68.5636 32.0713H69.4485V38.4597H68.6417L64.3472 33.5455V38.4597H63.4883V32.0713H64.2431L68.5896 37.0372V32.0713H68.5636Z" fill="#79ABD2"/>
<path d="M75.2264 35.3301H77.3866V38.0199C76.6058 38.3562 75.799 38.5372 75.0182 38.5372C73.9511 38.5372 73.0922 38.2269 72.4676 37.6061C71.8429 36.9854 71.5046 36.2353 71.5046 35.3301C71.5046 34.3731 71.8429 33.5714 72.4936 32.9506C73.1443 32.304 73.9771 31.9937 74.9661 31.9937C75.3305 31.9937 75.6689 32.0454 76.0072 32.123C76.3456 32.2006 76.736 32.3557 77.2305 32.5627V33.4938C76.4757 33.0541 75.6949 32.8213 74.9401 32.8213C74.2374 32.8213 73.6388 33.0541 73.1703 33.5455C72.6758 34.011 72.4415 34.6059 72.4415 35.3042C72.4415 36.0284 72.6758 36.6233 73.1703 37.0888C73.6388 37.5544 74.2634 37.7872 75.0182 37.7872C75.3826 37.7872 75.825 37.7096 76.3456 37.5285L76.4236 37.5027V36.1577H75.1744V35.3301H75.2264Z" fill="#79ABD2"/>
<path d="M79.7029 32.0713H80.6399V37.632H83.5289V38.4597H79.7029V32.0713Z" fill="#79ABD2"/>
<path d="M87.3028 32.0454H87.9535L90.8425 38.4855H89.9055L89.0466 36.5975H86.3138L85.507 38.4855H84.57L87.3028 32.0454ZM88.6562 35.7698L87.6151 33.4421L86.6522 35.7698H88.6562Z" fill="#79ABD2"/>
<path d="M97.6094 32.0713H98.4943V38.4597H97.6875L93.3931 33.5455V38.4597H92.5342V32.0713H93.289L97.6354 37.0372V32.0713H97.6094Z" fill="#79ABD2"/>
<path d="M100.811 38.4597V32.0713H102.971C103.856 32.0713 104.533 32.2006 105.053 32.4592C105.574 32.7179 105.964 33.1058 106.276 33.6231C106.589 34.1404 106.719 34.6835 106.719 35.2784C106.719 35.7181 106.641 36.1061 106.459 36.494C106.302 36.882 106.068 37.2182 105.756 37.5286C105.443 37.8389 105.079 38.0717 104.663 38.2269C104.428 38.3304 104.194 38.3821 103.986 38.4079C103.778 38.4338 103.387 38.4597 102.815 38.4597H100.811ZM102.893 32.8989H101.748V37.6579H102.919C103.387 37.6579 103.726 37.632 103.986 37.5544C104.246 37.5027 104.454 37.4251 104.637 37.3217C104.819 37.2182 104.975 37.1147 105.105 36.9596C105.548 36.494 105.782 35.925 105.782 35.2267C105.782 34.5284 105.548 33.9852 105.079 33.5455C104.897 33.3903 104.715 33.261 104.48 33.1576C104.246 33.0541 104.038 32.9765 103.856 32.9507C103.648 32.8989 103.335 32.8989 102.893 32.8989Z" fill="#79ABD2"/>
<path d="M113.59 32.0713H114.527V38.4597H113.59V32.0713Z" fill="#79ABD2"/>
<path d="M117.806 32.0713H121.971L119.056 38.5373L118.223 38.201L120.591 32.9507H117.806V32.0713Z" fill="#79ABD2"/>
<path d="M123.949 32.0713H126.812V32.8731H124.781V34.5025C124.833 34.5025 124.912 34.5025 124.99 34.5025C125.614 34.5025 126.135 34.6835 126.525 35.0715C126.916 35.4595 127.124 35.925 127.124 36.5199C127.124 37.1148 126.916 37.6062 126.525 37.9941C126.135 38.3821 125.614 38.5631 124.99 38.5631C124.469 38.5631 123.949 38.4338 123.48 38.1752V37.2441C123.949 37.5544 124.391 37.6838 124.833 37.6838C125.224 37.6838 125.536 37.5803 125.796 37.3475C126.057 37.1148 126.187 36.8561 126.187 36.5199C126.187 36.1837 126.057 35.8991 125.77 35.6664C125.484 35.4336 125.12 35.3301 124.703 35.3301C124.339 35.3301 124.079 35.356 123.949 35.4336V32.0713Z" fill="#79ABD2"/>
<path d="M130.429 38.5372L129.857 37.8648C130.325 37.5544 130.742 37.1923 131.106 36.7785C131.47 36.3388 131.705 35.925 131.809 35.4594C131.522 35.6405 131.184 35.7439 130.794 35.7439C130.299 35.7439 129.883 35.5629 129.518 35.2008C129.154 34.8387 128.998 34.399 128.998 33.8817C128.998 33.3386 129.18 32.8989 129.57 32.5368C129.935 32.1747 130.403 31.9937 130.95 31.9937C131.548 31.9937 132.043 32.2006 132.433 32.6402C132.824 33.0799 133.006 33.6489 133.006 34.3214C133.006 35.0973 132.772 35.8732 132.277 36.675C131.783 37.4768 131.184 38.0975 130.429 38.5372ZM131.991 34.5542C132.017 34.3214 132.043 34.1404 132.043 34.0886C132.043 33.7265 131.939 33.4162 131.731 33.1834C131.522 32.9506 131.262 32.8213 130.924 32.8213C130.637 32.8213 130.377 32.9248 130.195 33.1317C130.013 33.3386 129.909 33.5714 129.909 33.8817C129.909 34.1662 130.013 34.399 130.221 34.6059C130.429 34.8128 130.689 34.9163 130.976 34.9163C131.34 34.9163 131.678 34.787 131.991 34.5542Z" fill="#79ABD2"/>
</g>
<defs>
<clipPath id="clip0">
<rect width="204.75" height="39" fill="white"/>
</clipPath>
</defs>
</svg>
